<mxfile host="app.diagrams.net" agent="Mozilla/5.0 (Windows NT 10.0; Win64; x64) AppleWebKit/537.36 (KHTML, like Gecko) Chrome/129.0.0.0 Safari/537.36 Edg/129.0.0.0" version="24.7.17">
  <diagram name="Страница — 1" id="IlIoRuxjQqLTGTEibOej">
    <mxGraphModel grid="1" page="1" gridSize="10" guides="1" tooltips="1" connect="1" arrows="1" fold="1" pageScale="1" pageWidth="827" pageHeight="1169" math="0" shadow="0">
      <root>
        <mxCell id="0" />
        <mxCell id="1" parent="0" />
        <mxCell id="RIP-V-5AovfGl9KdVuni-8" value="" style="endArrow=classic;html=1;rounded=0;entryX=0.5;entryY=0;entryDx=0;entryDy=0;exitX=0.5;exitY=0.5;exitDx=0;exitDy=0;exitPerimeter=0;" edge="1" parent="1" source="RIP-V-5AovfGl9KdVuni-6" target="RIP-V-5AovfGl9KdVuni-2">
          <mxGeometry width="50" height="50" relative="1" as="geometry">
            <mxPoint x="620" y="100" as="sourcePoint" />
            <mxPoint x="600" y="190" as="targetPoint" />
          </mxGeometry>
        </mxCell>
        <mxCell id="RIP-V-5AovfGl9KdVuni-2" value="Керування системою" style="ellipse;whiteSpace=wrap;html=1;" vertex="1" parent="1">
          <mxGeometry x="610" y="190" width="120" height="80" as="geometry" />
        </mxCell>
        <mxCell id="RIP-V-5AovfGl9KdVuni-3" value="Реєстрація в систему" style="ellipse;whiteSpace=wrap;html=1;" vertex="1" parent="1">
          <mxGeometry x="135" y="230" width="120" height="80" as="geometry" />
        </mxCell>
        <mxCell id="RIP-V-5AovfGl9KdVuni-9" value="" style="edgeStyle=orthogonalEdgeStyle;rounded=0;orthogonalLoop=1;jettySize=auto;html=1;" edge="1" parent="1" source="RIP-V-5AovfGl9KdVuni-5" target="RIP-V-5AovfGl9KdVuni-3">
          <mxGeometry relative="1" as="geometry" />
        </mxCell>
        <mxCell id="RIP-V-5AovfGl9KdVuni-6" value="Адміністратор" style="shape=umlActor;verticalLabelPosition=bottom;verticalAlign=top;html=1;outlineConnect=0;fontColor=#000000;labelBackgroundColor=default;" vertex="1" parent="1">
          <mxGeometry x="580" y="40" width="30" height="60" as="geometry" />
        </mxCell>
        <mxCell id="RIP-V-5AovfGl9KdVuni-5" value="Абітурієнт" style="shape=umlActor;verticalLabelPosition=bottom;verticalAlign=top;html=1;outlineConnect=0;fontColor=#000000;labelBackgroundColor=default;" vertex="1" parent="1">
          <mxGeometry x="180" y="120" width="30" height="60" as="geometry" />
        </mxCell>
        <mxCell id="RIP-V-5AovfGl9KdVuni-11" value="" style="endArrow=classic;html=1;rounded=0;curved=0;endFill=0;jumpSize=6;strokeWidth=1;entryX=0.5;entryY=0;entryDx=0;entryDy=0;entryPerimeter=0;exitX=0.5;exitY=0.5;exitDx=0;exitDy=0;exitPerimeter=0;" edge="1" parent="1" source="RIP-V-5AovfGl9KdVuni-6" target="RIP-V-5AovfGl9KdVuni-10">
          <mxGeometry width="50" height="50" relative="1" as="geometry">
            <mxPoint x="390" y="280" as="sourcePoint" />
            <mxPoint x="520" y="140" as="targetPoint" />
          </mxGeometry>
        </mxCell>
        <mxCell id="RIP-V-5AovfGl9KdVuni-12" value="" style="endArrow=classic;html=1;rounded=0;exitX=0.5;exitY=0.5;exitDx=0;exitDy=0;exitPerimeter=0;" edge="1" parent="1" source="RIP-V-5AovfGl9KdVuni-10">
          <mxGeometry width="50" height="50" relative="1" as="geometry">
            <mxPoint x="550" y="260" as="sourcePoint" />
            <mxPoint x="610" y="340" as="targetPoint" />
          </mxGeometry>
        </mxCell>
        <mxCell id="RIP-V-5AovfGl9KdVuni-13" value="" style="endArrow=classic;html=1;rounded=0;exitX=0.5;exitY=0.5;exitDx=0;exitDy=0;exitPerimeter=0;" edge="1" parent="1" source="RIP-V-5AovfGl9KdVuni-10">
          <mxGeometry width="50" height="50" relative="1" as="geometry">
            <mxPoint x="515" y="220" as="sourcePoint" />
            <mxPoint x="430" y="340" as="targetPoint" />
          </mxGeometry>
        </mxCell>
        <mxCell id="RIP-V-5AovfGl9KdVuni-14" value="" style="endArrow=classic;html=1;rounded=0;exitX=0.5;exitY=0.5;exitDx=0;exitDy=0;exitPerimeter=0;" edge="1" parent="1">
          <mxGeometry width="50" height="50" relative="1" as="geometry">
            <mxPoint x="514.66" y="250" as="sourcePoint" />
            <mxPoint x="515" y="340" as="targetPoint" />
          </mxGeometry>
        </mxCell>
        <mxCell id="RIP-V-5AovfGl9KdVuni-10" value="Співробітник комісії" style="shape=umlActor;verticalLabelPosition=bottom;verticalAlign=top;html=1;outlineConnect=0;labelBackgroundColor=default;" vertex="1" parent="1">
          <mxGeometry x="500" y="190" width="30" height="60" as="geometry" />
        </mxCell>
        <mxCell id="RIP-V-5AovfGl9KdVuni-15" value="Внесення даних" style="ellipse;whiteSpace=wrap;html=1;" vertex="1" parent="1">
          <mxGeometry x="320" y="330" width="120" height="80" as="geometry" />
        </mxCell>
        <mxCell id="RIP-V-5AovfGl9KdVuni-16" value="Управління балами" style="ellipse;whiteSpace=wrap;html=1;" vertex="1" parent="1">
          <mxGeometry x="455" y="350" width="120" height="80" as="geometry" />
        </mxCell>
        <mxCell id="RIP-V-5AovfGl9KdVuni-17" value="Розподіл за спеціальностями" style="ellipse;whiteSpace=wrap;html=1;" vertex="1" parent="1">
          <mxGeometry x="600" y="330" width="120" height="80" as="geometry" />
        </mxCell>
        <mxCell id="RIP-V-5AovfGl9KdVuni-18" value="«include»" style="endArrow=openThin;html=1;rounded=0;dashed=1;endFill=0;entryX=0;entryY=0;entryDx=0;entryDy=0;" edge="1" parent="1" target="RIP-V-5AovfGl9KdVuni-20">
          <mxGeometry width="50" height="50" relative="1" as="geometry">
            <mxPoint x="379.66" y="410" as="sourcePoint" />
            <mxPoint x="410" y="560" as="targetPoint" />
          </mxGeometry>
        </mxCell>
        <mxCell id="RIP-V-5AovfGl9KdVuni-19" value="«include»" style="endArrow=openThin;html=1;rounded=0;dashed=1;endFill=0;entryX=1;entryY=0;entryDx=0;entryDy=0;" edge="1" parent="1" target="RIP-V-5AovfGl9KdVuni-20">
          <mxGeometry width="50" height="50" relative="1" as="geometry">
            <mxPoint x="520" y="430" as="sourcePoint" />
            <mxPoint x="430" y="560" as="targetPoint" />
          </mxGeometry>
        </mxCell>
        <mxCell id="RIP-V-5AovfGl9KdVuni-20" value="Перевірка документів" style="ellipse;whiteSpace=wrap;html=1;" vertex="1" parent="1">
          <mxGeometry x="390" y="560" width="120" height="80" as="geometry" />
        </mxCell>
        <mxCell id="RIP-V-5AovfGl9KdVuni-23" value="«extend»" style="endArrow=openThin;html=1;rounded=0;dashed=1;endFill=0;exitX=0.5;exitY=1;exitDx=0;exitDy=0;entryX=0.5;entryY=0;entryDx=0;entryDy=0;" edge="1" parent="1" source="RIP-V-5AovfGl9KdVuni-17" target="RIP-V-5AovfGl9KdVuni-24">
          <mxGeometry width="50" height="50" relative="1" as="geometry">
            <mxPoint x="665" y="410" as="sourcePoint" />
            <mxPoint x="665" y="560" as="targetPoint" />
          </mxGeometry>
        </mxCell>
        <mxCell id="RIP-V-5AovfGl9KdVuni-24" value="Формування звітів" style="ellipse;whiteSpace=wrap;html=1;" vertex="1" parent="1">
          <mxGeometry x="600" y="560" width="120" height="80" as="geometry" />
        </mxCell>
        <mxCell id="RIP-V-5AovfGl9KdVuni-25" value="«include»" style="endArrow=openThin;html=1;rounded=0;dashed=1;endFill=0;exitX=0.5;exitY=1;exitDx=0;exitDy=0;entryX=0.5;entryY=0;entryDx=0;entryDy=0;" edge="1" parent="1" source="RIP-V-5AovfGl9KdVuni-3" target="RIP-V-5AovfGl9KdVuni-27">
          <mxGeometry width="50" height="50" relative="1" as="geometry">
            <mxPoint x="200" y="340" as="sourcePoint" />
            <mxPoint x="270" y="480" as="targetPoint" />
          </mxGeometry>
        </mxCell>
        <mxCell id="RIP-V-5AovfGl9KdVuni-26" value="«include»" style="endArrow=openThin;html=1;rounded=0;dashed=1;endFill=0;exitX=0.5;exitY=1;exitDx=0;exitDy=0;entryX=0.5;entryY=0;entryDx=0;entryDy=0;" edge="1" parent="1" source="RIP-V-5AovfGl9KdVuni-3" target="RIP-V-5AovfGl9KdVuni-28">
          <mxGeometry width="50" height="50" relative="1" as="geometry">
            <mxPoint x="150" y="320" as="sourcePoint" />
            <mxPoint x="110" y="480" as="targetPoint" />
          </mxGeometry>
        </mxCell>
        <mxCell id="RIP-V-5AovfGl9KdVuni-27" value="Внесення паролю" style="ellipse;whiteSpace=wrap;html=1;" vertex="1" parent="1">
          <mxGeometry x="255" y="560" width="120" height="80" as="geometry" />
        </mxCell>
        <mxCell id="RIP-V-5AovfGl9KdVuni-28" value="Внесення логіну" style="ellipse;whiteSpace=wrap;html=1;" vertex="1" parent="1">
          <mxGeometry x="15" y="560" width="120" height="80" as="geometry" />
        </mxCell>
        <mxCell id="RIP-V-5AovfGl9KdVuni-38" value="" style="endArrow=classic;html=1;rounded=0;curved=0;endFill=0;jumpSize=6;strokeWidth=1;entryX=0.5;entryY=0;entryDx=0;entryDy=0;entryPerimeter=0;" edge="1" parent="1" target="RIP-V-5AovfGl9KdVuni-5">
          <mxGeometry width="50" height="50" relative="1" as="geometry">
            <mxPoint x="194.86" y="70" as="sourcePoint" />
            <mxPoint x="194.86" y="120" as="targetPoint" />
          </mxGeometry>
        </mxCell>
        <mxCell id="RIP-V-5AovfGl9KdVuni-36" value="Користувач системи" style="shape=umlActor;verticalLabelPosition=bottom;verticalAlign=top;html=1;outlineConnect=0;fontColor=#000000;labelBackgroundColor=default;" vertex="1" parent="1">
          <mxGeometry x="180" y="10" width="30" height="60" as="geometry" />
        </mxCell>
        <mxCell id="RIP-V-5AovfGl9KdVuni-39" value="Перегляд даних" style="ellipse;whiteSpace=wrap;html=1;" vertex="1" parent="1">
          <mxGeometry x="70" y="770" width="120" height="80" as="geometry" />
        </mxCell>
        <mxCell id="RIP-V-5AovfGl9KdVuni-41" value="Подача документів" style="ellipse;whiteSpace=wrap;html=1;" vertex="1" parent="1">
          <mxGeometry x="200" y="770" width="120" height="80" as="geometry" />
        </mxCell>
        <mxCell id="RIP-V-5AovfGl9KdVuni-43" value="" style="endArrow=classic;html=1;rounded=0;entryX=0.5;entryY=0;entryDx=0;entryDy=0;" edge="1" parent="1" target="RIP-V-5AovfGl9KdVuni-41">
          <mxGeometry width="50" height="50" relative="1" as="geometry">
            <mxPoint x="195" y="310" as="sourcePoint" />
            <mxPoint x="290" y="170" as="targetPoint" />
          </mxGeometry>
        </mxCell>
        <mxCell id="RIP-V-5AovfGl9KdVuni-44" value="" style="endArrow=classic;html=1;rounded=0;entryX=0.5;entryY=0;entryDx=0;entryDy=0;exitX=0.5;exitY=1;exitDx=0;exitDy=0;" edge="1" parent="1" target="RIP-V-5AovfGl9KdVuni-39" source="RIP-V-5AovfGl9KdVuni-3">
          <mxGeometry width="50" height="50" relative="1" as="geometry">
            <mxPoint x="190" y="310" as="sourcePoint" />
            <mxPoint x="220" y="130" as="targetPoint" />
          </mxGeometry>
        </mxCell>
        <mxCell id="DyqyoEHbniJYUl4Q9Y1--3" value="Заповнення електронної форми" style="ellipse;whiteSpace=wrap;html=1;" vertex="1" parent="1">
          <mxGeometry x="200" y="920" width="120" height="80" as="geometry" />
        </mxCell>
        <mxCell id="DyqyoEHbniJYUl4Q9Y1--4" value="«include»" style="endArrow=openThin;html=1;rounded=0;dashed=1;endFill=0;exitX=0.5;exitY=1;exitDx=0;exitDy=0;entryX=0.5;entryY=0;entryDx=0;entryDy=0;" edge="1" parent="1" source="RIP-V-5AovfGl9KdVuni-41" target="DyqyoEHbniJYUl4Q9Y1--3">
          <mxGeometry width="50" height="50" relative="1" as="geometry">
            <mxPoint x="274" y="850" as="sourcePoint" />
            <mxPoint x="290" y="980" as="targetPoint" />
          </mxGeometry>
        </mxCell>
      </root>
    </mxGraphModel>
  </diagram>
</mxfile>
